<svg xmlns="http://www.w3.org/2000/svg" viewBox="0 0 400 400" width="400" height="400">
  <defs>
    <radialGradient id="id-glow" cx="0.5" cy="0.45" r="0.5">
      <stop offset="0%" stop-color="#F5E6C8" stop-opacity="0.3"/>
      <stop offset="100%" stop-color="#2D3B2D" stop-opacity="0"/>
    </radialGradient>
    <linearGradient id="id-bg" x1="0" y1="0" x2="0.3" y2="1">
      <stop offset="0%" stop-color="#F7F1E3"/>
      <stop offset="100%" stop-color="#EDE4D0"/>
    </linearGradient>
  </defs>
  <rect width="400" height="400" fill="url(#id-bg)"/>
  <ellipse cx="200" cy="180" rx="150" ry="150" fill="url(#id-glow)"/>
  <!-- Profile face emerging from botanicals -->
  <path d="M170,350 Q168,320 165,290 Q163,270 165,250 Q167,235 170,220 Q173,208 178,198 Q182,190 185,182 Q188,175 188,168 Q188,160 185,152 Q182,145 180,140 Q178,135 178,128 Q179,120 182,112 Q186,105 192,100 Q198,96 205,95 Q212,95 218,98 Q223,102 226,108 Q228,115 228,122 Q227,130 224,136 Q222,140 220,145 Q230,142 238,138 Q244,135 248,138 Q250,142 248,148 Q244,155 238,160 Q232,165 225,168 Q220,170 216,174 Q212,180 210,188 Q208,198 210,210 Q213,225 218,245 Q222,260 225,280 Q228,305 230,330 Q232,350 232,370" fill="#5B7F5B" opacity="0.12"/>
  <!-- Main profile — sage/cream -->
  <path d="M170,350 Q168,320 165,290 Q163,270 165,250 Q167,235 170,220 Q173,208 178,198 Q182,190 185,182 Q188,175 188,168 Q188,160 185,152 Q182,145 180,140 Q178,135 178,128 Q179,120 182,112 Q186,105 192,100 Q198,96 205,95 Q212,95 218,98 Q223,102 226,108 Q228,115 228,122 Q227,130 224,136 Q222,140 220,145 Q230,142 238,138 Q244,135 248,138 Q250,142 248,148 Q244,155 238,160 Q232,165 225,168 Q220,170 216,174 Q212,180 210,188 Q208,198 210,210 Q213,225 218,245 Q222,260 225,280 Q228,305 230,330 Q232,350 232,370" fill="none" stroke="#6B7F5B" stroke-width="2.5" opacity="0.7"/>
  <!-- Vine tendrils forming hair -->
  <path d="M182,112 Q175,100 160,88 Q145,78 130,82 Q118,88 115,100 Q113,112 120,120 Q128,125 135,118" fill="none" stroke="#7D9B6B" stroke-width="2.5" stroke-linecap="round" opacity="0.7"/>
  <path d="M186,105 Q178,90 165,75 Q155,65 148,58 Q142,52 138,45 Q135,38 140,32 Q148,28 155,35" fill="none" stroke="#8FA97D" stroke-width="2" stroke-linecap="round" opacity="0.6"/>
  <path d="M192,100 Q188,85 180,68 Q175,55 178,42 Q182,32 192,30 Q200,32 205,40" fill="none" stroke="#6B8F5B" stroke-width="2.8" stroke-linecap="round" opacity="0.65"/>
  <path d="M205,95 Q208,78 215,62 Q222,48 232,40 Q240,36 248,42 Q252,50 248,60" fill="none" stroke="#7D9B6B" stroke-width="2" stroke-linecap="round" opacity="0.55"/>
  <path d="M218,98 Q228,82 240,72 Q252,65 262,68 Q268,75 265,85 Q260,92 250,95" fill="none" stroke="#5B7F5B" stroke-width="2.5" stroke-linecap="round" opacity="0.6"/>
  <!-- Leaf shapes around the profile -->
  <path d="M125,95 Q118,80 128,68 Q138,60 148,68 Q155,78 145,88 Z" fill="#8FA97D" opacity="0.4"/>
  <path d="M140,42 Q132,30 142,22 Q152,18 158,28 Q160,40 150,45 Z" fill="#7D9B6B" opacity="0.35"/>
  <path d="M250,55 Q258,42 268,48 Q275,58 265,65 Q255,68 250,55 Z" fill="#6B8F5B" opacity="0.35"/>
  <path d="M260,80 Q270,72 278,78 Q282,88 272,92 Q262,90 260,80 Z" fill="#8FA97D" opacity="0.3"/>
  <!-- Small leaf details -->
  <path d="M110,115 Q105,108 112,102 Q120,100 122,108 Q118,115 110,115 Z" fill="#A0B890" opacity="0.5"/>
  <path d="M195,32 Q192,22 200,20 Q208,22 206,32 Q200,36 195,32 Z" fill="#7D9B6B" opacity="0.4"/>
  <!-- Gold accent veins on leaves -->
  <line x1="128" y1="68" x2="140" y2="82" stroke="#C4A35A" stroke-width="0.8" opacity="0.5"/>
  <line x1="148" y1="25" x2="152" y2="38" stroke="#C4A35A" stroke-width="0.8" opacity="0.5"/>
  <line x1="262" y1="50" x2="265" y2="62" stroke="#C4A35A" stroke-width="0.8" opacity="0.5"/>
  <!-- Subtle gold dust -->
  <g fill="#C4A35A" opacity="0.25">
    <circle cx="135" cy="110" r="1.2"/>
    <circle cx="155" cy="55" r="1"/>
    <circle cx="240" cy="50" r="0.8"/>
    <circle cx="270" cy="88" r="1"/>
    <circle cx="115" cy="105" r="0.8"/>
    <circle cx="200" cy="28" r="0.9"/>
    <circle cx="175" cy="70" r="1.1"/>
  </g>
</svg>