<svg xmlns="http://www.w3.org/2000/svg" viewBox="0 0 600 800" width="600" height="800">
  <defs>
    <pattern id="bricks" width="120" height="40">
      <rect width="118" height="38" x="1" y="1" fill="#8b4513"/>
      <rect width="118" height="38" x="1" y="1" fill="#a0522d" opacity="0.5"/>
    </pattern>
    <pattern id="bricks-offset" width="120" height="80" patternUnits="userSpaceOnUse">
      <rect x="0" y="0" width="115" height="35" fill="#8b4513"/>
      <rect x="60" y="40" width="115" height="35" fill="#7a3d1a"/>
    </pattern>
  </defs>
  <rect width="600" height="800" fill="url(#bricks-offset)"/>
  <path d="M250 200 L350 200 L350 400 L250 400 Z" fill="none" stroke="#2d2d2d" stroke-width="4"/>
  <path d="M270 250 L330 250 L330 350 L270 350 Z" fill="none" stroke="#2d2d2d" stroke-width="2"/>
  <path d="M200 500 L250 450 L300 500 L250 550 Z" fill="none" stroke="#2d2d2d" stroke-width="3"/>
  <path d="M350 450 L400 400 L450 450 L400 500 Z" fill="none" stroke="#2d2d2d" stroke-width="3"/>
  <path d="M280 550 L320 550 L320 600 L280 600 Z" fill="none" stroke="#2d2d2d" stroke-width="2"/>
</svg>
