<svg xmlns="http://www.w3.org/2000/svg" viewBox="0 0 600 800" width="600" height="800">
  <defs>
    <linearGradient id="chrome" x1="0%" y1="0%" x2="100%" y2="100%">
      <stop offset="0%" style="stop-color:#e8e8e8"/>
      <stop offset="25%" style="stop-color:#ffffff"/>
      <stop offset="50%" style="stop-color:#c0c0c0"/>
      <stop offset="75%" style="stop-color:#a0a0a0"/>
      <stop offset="100%" style="stop-color:#d0d0d0"/>
    </linearGradient>
    <linearGradient id="chrome-highlight" x1="20%" y1="20%" x2="80%" y2="80%">
      <stop offset="0%" style="stop-color:#ffffff"/>
      <stop offset="70%" style="stop-color:#d0d0d0"/>
      <stop offset="100%" style="stop-color:#a0a0a0"/>
    </linearGradient>
    <path id="heart" d="M300 650 C300 650 100 450 100 300 C100 150 200 100 300 200 C400 100 500 150 500 300 C500 450 300 650 300 650 Z"/>
  </defs>
  <rect width="600" height="800" fill="#f5f5f5"/>
  <path d="M300 650 C300 650 100 450 100 300 C100 150 200 100 300 200 C400 100 500 150 500 300 C500 450 300 650 300 650 Z" fill="url(#chrome)" stroke="#0a0a0a" stroke-width="6"/>
  <path d="M300 650 C300 650 100 450 100 300 C100 150 200 100 300 200 C400 100 500 150 500 300 C500 450 300 650 300 650 Z" fill="none" stroke="#0a0a0a" stroke-width="4"/>
  <circle cx="200" cy="350" r="8" fill="#e74c3c"/>
  <circle cx="300" cy="320" r="6" fill="#3498db"/>
  <circle cx="400" cy="350" r="8" fill="#e74c3c"/>
</svg>
