<svg xmlns="http://www.w3.org/2000/svg" viewBox="0 0 600 800" width="600" height="800">
  <defs>
    <radialGradient id="fw-glow" cx="0.5" cy="0.45" r="0.45">
      <stop offset="0%" stop-color="#D4A84A" stop-opacity="0.15"/>
      <stop offset="60%" stop-color="#F5E8C8" stop-opacity="0.05"/>
      <stop offset="100%" stop-color="#FBF5E8" stop-opacity="0"/>
    </radialGradient>
    <linearGradient id="fw-bg" x1="0" y1="0" x2="0.2" y2="1">
      <stop offset="0%" stop-color="#FBF5E8"/>
      <stop offset="100%" stop-color="#F5EDD8"/>
    </linearGradient>
  </defs>
  <rect width="600" height="800" fill="url(#fw-bg)"/>
  <!-- Golden glow behind fern -->
  <ellipse cx="300" cy="360" rx="200" ry="280" fill="url(#fw-glow)"/>
  <!-- Main fern frond — central stem -->
  <path d="M300,750 Q298,700 295,640 Q292,580 290,520 Q288,460 288,400 Q288,340 292,280 Q296,220 305,160 Q312,110 320,70" fill="none" stroke="#3D6B35" stroke-width="4" stroke-linecap="round"/>
  <!-- Left leaflets — curving gracefully, Art Nouveau style -->
  <path d="M292,680 Q250,660 220,640 Q200,628 210,620" fill="none" stroke="#5A8A4A" stroke-width="2.5" stroke-linecap="round"/>
  <path d="M220,640 Q235,635 250,642 Q260,648 265,655" fill="#6B9B5A" opacity="0.4"/>
  <path d="M290,620 Q240,595 210,570 Q190,555 200,548" fill="none" stroke="#4D7A3D" stroke-width="2.5" stroke-linecap="round"/>
  <path d="M210,570 Q230,565 248,575 Q258,582 260,592" fill="#5A8A4A" opacity="0.35"/>
  <path d="M289,560 Q230,530 195,500 Q175,482 188,475" fill="none" stroke="#3D6B35" stroke-width="2.5" stroke-linecap="round"/>
  <path d="M195,500 Q218,495 238,508 Q250,518 252,530" fill="#4D7A3D" opacity="0.4"/>
  <path d="M288,500 Q225,465 185,430 Q168,412 180,405" fill="none" stroke="#5A8A4A" stroke-width="2.5" stroke-linecap="round"/>
  <path d="M185,430 Q210,425 232,440 Q245,452 248,465" fill="#6B9B5A" opacity="0.35"/>
  <path d="M288,440 Q220,400 180,360 Q162,340 175,332" fill="none" stroke="#3D6B35" stroke-width="2.5" stroke-linecap="round"/>
  <path d="M180,360 Q205,355 228,372 Q242,385 245,400" fill="#4D7A3D" opacity="0.4"/>
  <path d="M290,380 Q225,338 188,295 Q172,275 185,268" fill="none" stroke="#5A8A4A" stroke-width="2.5" stroke-linecap="round"/>
  <path d="M188,295 Q212,290 235,308 Q248,322 250,338" fill="#6B9B5A" opacity="0.35"/>
  <path d="M292,320 Q238,278 205,235 Q192,218 205,212" fill="none" stroke="#3D6B35" stroke-width="2" stroke-linecap="round"/>
  <path d="M205,235 Q225,230 242,248 Q252,260 255,275" fill="#4D7A3D" opacity="0.35"/>
  <path d="M296,260 Q252,222 228,185 Q218,168 230,162" fill="none" stroke="#5A8A4A" stroke-width="2" stroke-linecap="round"/>
  <path d="M228,185 Q245,180 258,195 Q265,208 267,222" fill="#6B9B5A" opacity="0.3"/>
  <path d="M302,200 Q270,170 252,138 Q245,122 255,118" fill="none" stroke="#3D6B35" stroke-width="1.8" stroke-linecap="round"/>
  <path d="M252,138 Q265,135 275,148 Q280,158 280,168" fill="#4D7A3D" opacity="0.3"/>
  <path d="M308,150 Q285,125 275,100 Q272,88 280,85" fill="none" stroke="#5A8A4A" stroke-width="1.5" stroke-linecap="round"/>
  <!-- Right leaflets — mirror pattern -->
  <path d="M295,680 Q340,655 370,632 Q388,620 378,614" fill="none" stroke="#5A8A4A" stroke-width="2.5" stroke-linecap="round"/>
  <path d="M370,632 Q352,628 338,638 Q328,648 325,658" fill="#6B9B5A" opacity="0.4"/>
  <path d="M292,620 Q345,590 380,560 Q398,545 388,538" fill="none" stroke="#4D7A3D" stroke-width="2.5" stroke-linecap="round"/>
  <path d="M380,560 Q360,555 342,568 Q332,578 330,590" fill="#5A8A4A" opacity="0.35"/>
  <path d="M290,560 Q350,525 390,490 Q408,472 398,465" fill="none" stroke="#3D6B35" stroke-width="2.5" stroke-linecap="round"/>
  <path d="M390,490 Q368,485 348,500 Q336,512 334,525" fill="#4D7A3D" opacity="0.4"/>
  <path d="M289,500 Q355,460 400,420 Q418,402 408,395" fill="none" stroke="#5A8A4A" stroke-width="2.5" stroke-linecap="round"/>
  <path d="M400,420 Q378,415 355,432 Q342,445 340,460" fill="#6B9B5A" opacity="0.35"/>
  <path d="M289,440 Q358,395 405,352 Q422,335 412,328" fill="none" stroke="#3D6B35" stroke-width="2.5" stroke-linecap="round"/>
  <path d="M405,352 Q382,348 358,365 Q345,380 342,395" fill="#4D7A3D" opacity="0.4"/>
  <path d="M290,380 Q362,332 408,285 Q425,265 415,258" fill="none" stroke="#5A8A4A" stroke-width="2.5" stroke-linecap="round"/>
  <path d="M408,285 Q385,280 362,298 Q348,312 345,330" fill="#6B9B5A" opacity="0.35"/>
  <path d="M293,320 Q355,272 395,228 Q410,210 400,205" fill="none" stroke="#3D6B35" stroke-width="2" stroke-linecap="round"/>
  <path d="M395,228 Q375,225 358,240 Q348,255 345,270" fill="#4D7A3D" opacity="0.35"/>
  <path d="M298,260 Q348,215 378,178 Q390,162 382,158" fill="none" stroke="#5A8A4A" stroke-width="2" stroke-linecap="round"/>
  <path d="M378,178 Q362,175 348,188 Q340,200 338,215" fill="#6B9B5A" opacity="0.3"/>
  <path d="M305,200 Q340,165 358,132 Q365,118 358,115" fill="none" stroke="#3D6B35" stroke-width="1.8" stroke-linecap="round"/>
  <path d="M358,132 Q345,130 335,142 Q330,152 328,165" fill="#4D7A3D" opacity="0.3"/>
  <path d="M312,150 Q330,120 340,95 Q342,85 335,82" fill="none" stroke="#5A8A4A" stroke-width="1.5" stroke-linecap="round"/>
  <!-- Unfurling tip — the fiddle-head spiral -->
  <path d="M320,70 Q325,55 330,48 Q338,42 342,48 Q340,58 332,62 Q325,64 322,68" fill="none" stroke="#3D6B35" stroke-width="3" stroke-linecap="round"/>
  <!-- Lime highlights on some leaflets -->
  <path d="M220,640 Q235,638 245,642" stroke="#90C040" stroke-width="1" opacity="0.3" fill="none"/>
  <path d="M195,500 Q215,498 230,505" stroke="#90C040" stroke-width="1" opacity="0.25" fill="none"/>
  <path d="M370,632 Q356,630 345,636" stroke="#90C040" stroke-width="1" opacity="0.3" fill="none"/>
  <path d="M390,490 Q372,488 358,496" stroke="#90C040" stroke-width="1" opacity="0.25" fill="none"/>
</svg>