<svg xmlns="http://www.w3.org/2000/svg" viewBox="0 0 600 800" width="600" height="800">
  <defs>
    <linearGradient id="industrial" x1="0%" y1="0%" x2="100%" y2="100%">
      <stop offset="0%" style="stop-color:#4a4a4a"/>
      <stop offset="100%" style="stop-color:#2d2d2d"/>
    </linearGradient>
  </defs>
  <rect width="600" height="800" fill="#1a1a1a"/>
  <rect x="100" y="50" width="400" height="30" fill="url(#industrial)"/>
  <path d="M100 80 L150 200 L200 80 L250 200 L300 80 L350 200 L400 80 L450 200 L500 80" stroke="url(#industrial)" stroke-width="8" fill="none"/>
  <rect x="100" y="200" width="400" height="30" fill="url(#industrial)"/>
  <path d="M100 230 L150 350 L200 230 L250 350 L300 230 L350 350 L400 230 L450 350 L500 230" stroke="url(#industrial)" stroke-width="8" fill="none"/>
  <rect x="100" y="350" width="400" height="30" fill="url(#industrial)"/>
  <path d="M100 380 L150 500 L200 380 L250 500 L300 380 L350 500 L400 380 L450 500 L500 380" stroke="url(#industrial)" stroke-width="8" fill="none"/>
  <rect x="100" y="500" width="400" height="30" fill="url(#industrial)"/>
  <rect x="145" y="80" width="8" height="120" fill="#e74c3c"/>
  <rect x="245" y="80" width="8" height="120" fill="#e74c3c"/>
  <rect x="345" y="80" width="8" height="120" fill="#e74c3c"/>
  <rect x="445" y="80" width="8" height="120" fill="#e74c3c"/>
</svg>
