<svg xmlns="http://www.w3.org/2000/svg" viewBox="0 0 600 800" width="600" height="800">
  <defs>
    <radialGradient id="gg-center" cx="0.5" cy="0.5" r="0.15">
      <stop offset="0%" stop-color="#3D2B1A"/>
      <stop offset="60%" stop-color="#5A3D20"/>
      <stop offset="100%" stop-color="#6B4A28"/>
    </radialGradient>
    <radialGradient id="gg-glow" cx="0.5" cy="0.5" r="0.5">
      <stop offset="0%" stop-color="#E8C050" stop-opacity="0.2"/>
      <stop offset="100%" stop-color="#FBF0D8" stop-opacity="0"/>
    </radialGradient>
    <linearGradient id="gg-bg" x1="0" y1="0" x2="0" y2="1">
      <stop offset="0%" stop-color="#FBF0D8"/>
      <stop offset="100%" stop-color="#F5E8C8"/>
    </linearGradient>
  </defs>
  <rect width="600" height="800" fill="url(#gg-bg)"/>
  <!-- Warm glow behind flower -->
  <ellipse cx="300" cy="400" rx="280" ry="350" fill="url(#gg-glow)"/>
  <!-- O'Keeffe style — large flower from above, filling frame -->
  <!-- Outermost petals — cream -->
  <path d="M300,50 Q380,120 420,200 Q440,280 400,360 Q360,400 300,400 Q240,400 200,360 Q160,280 180,200 Q220,120 300,50 Z" fill="#F5E2B0" opacity="0.5"/>
  <path d="M550,400 Q480,320 420,280 Q360,260 300,280 Q280,300 280,360 Q280,420 300,400 Q360,340 420,360 Q480,380 550,400 Z" fill="#F0D898" opacity="0.45"/>
  <path d="M300,750 Q220,680 180,600 Q160,520 200,440 Q240,400 300,400 Q360,400 400,440 Q440,520 420,600 Q380,680 300,750 Z" fill="#E8D090" opacity="0.5"/>
  <path d="M50,400 Q120,480 180,520 Q240,540 300,520 Q320,500 320,440 Q320,380 300,400 Q240,460 180,440 Q120,420 50,400 Z" fill="#F5DCA0" opacity="0.45"/>
  <!-- Middle petals — amber/gold -->
  <path d="M300,120 Q360,180 390,250 Q410,320 380,380 Q340,400 300,400 Q260,400 220,380 Q190,320 210,250 Q240,180 300,120 Z" fill="#D4A040" opacity="0.5"/>
  <path d="M480,400 Q430,340 380,310 Q340,300 300,320 Q290,340 290,380 Q290,400 300,400 Q340,370 380,380 Q430,400 480,400 Z" fill="#C4943A" opacity="0.5"/>
  <path d="M300,680 Q240,620 210,550 Q190,480 220,420 Q260,400 300,400 Q340,400 380,420 Q410,480 390,550 Q360,620 300,680 Z" fill="#D4A848" opacity="0.5"/>
  <path d="M120,400 Q170,460 220,490 Q260,500 300,480 Q310,460 310,420 Q310,400 300,400 Q260,430 220,420 Q170,400 120,400 Z" fill="#C4983A" opacity="0.5"/>
  <!-- Inner petals — deeper gold -->
  <path d="M300,200 Q340,250 360,310 Q370,360 340,390 Q320,400 300,400 Q280,400 260,390 Q230,360 240,310 Q260,250 300,200 Z" fill="#B88A28" opacity="0.55"/>
  <path d="M400,400 Q370,360 345,340 Q320,330 300,345 Q295,360 295,390 Q298,400 300,400 Q320,380 345,385 Q370,395 400,400 Z" fill="#A07828" opacity="0.55"/>
  <path d="M300,600 Q260,550 240,490 Q230,440 260,410 Q280,400 300,400 Q320,400 340,410 Q370,440 360,490 Q340,550 300,600 Z" fill="#B88A28" opacity="0.55"/>
  <path d="M200,400 Q230,440 255,460 Q280,470 300,455 Q305,440 305,410 Q302,400 300,400 Q280,420 255,415 Q230,405 200,400 Z" fill="#A07828" opacity="0.55"/>
  <!-- Diagonal petals -->
  <path d="M380,200 Q390,280 380,340 Q360,380 320,400 Q300,400 300,400 Q320,360 330,300 Q340,240 380,200 Z" fill="#C4A040" opacity="0.4"/>
  <path d="M220,200 Q210,280 220,340 Q240,380 280,400 Q300,400 300,400 Q280,360 270,300 Q260,240 220,200 Z" fill="#C4A040" opacity="0.4"/>
  <path d="M380,600 Q390,520 380,460 Q360,420 320,400 Q300,400 300,400 Q320,440 330,500 Q340,560 380,600 Z" fill="#C4A040" opacity="0.4"/>
  <path d="M220,600 Q210,520 220,460 Q240,420 280,400 Q300,400 300,400 Q280,440 270,500 Q260,560 220,600 Z" fill="#C4A040" opacity="0.4"/>
  <!-- Center — dark brown -->
  <circle cx="300" cy="400" r="40" fill="url(#gg-center)"/>
  <!-- Stamens in center -->
  <g fill="#D4A040" opacity="0.6">
    <circle cx="288" cy="388" r="3"/><circle cx="312" cy="388" r="3"/>
    <circle cx="280" cy="400" r="2.5"/><circle cx="320" cy="400" r="2.5"/>
    <circle cx="288" cy="412" r="3"/><circle cx="312" cy="412" r="3"/>
    <circle cx="300" cy="382" r="2.5"/><circle cx="300" cy="418" r="2.5"/>
    <circle cx="296" cy="396" r="2"/><circle cx="304" cy="404" r="2"/>
  </g>
  <!-- Inner ring of tiny details -->
  <circle cx="300" cy="400" r="30" fill="none" stroke="#8B6914" stroke-width="0.8" opacity="0.3"/>
  <circle cx="300" cy="400" r="50" fill="none" stroke="#C4943A" stroke-width="0.5" opacity="0.15"/>
</svg>