<svg xmlns="http://www.w3.org/2000/svg" viewBox="0 0 600 800" width="600" height="800">
  <defs>
    <linearGradient id="night-water" x1="0%" y1="0%" x2="0%" y2="100%">
      <stop offset="0%" style="stop-color:#0d0d1a"/>
      <stop offset="50%" style="stop-color:#1a1a2e"/>
      <stop offset="100%" style="stop-color:#0a0a15"/>
    </linearGradient>
    <radialGradient id="light1" cx="25%" cy="55%" r="5%">
      <stop offset="0%" style="stop-color:#ffd700"/>
      <stop offset="100%" style="stop-color:#ffd700;stop-opacity:0"/>
    </radialGradient>
    <radialGradient id="light2" cx="50%" cy="60%" r="4%">
      <stop offset="0%" style="stop-color:#ff6b35"/>
      <stop offset="100%" style="stop-color:#ff6b35;stop-opacity:0"/>
    </radialGradient>
    <radialGradient id="light3" cx="75%" cy="55%" r="5%">
      <stop offset="0%" style="stop-color:#ffd700"/>
      <stop offset="100%" style="stop-color:#ffd700;stop-opacity:0"/>
    </radialGradient>
  </defs>
  <rect width="600" height="800" fill="url(#night-water)"/>
  <path d="M0 500 L100 480 L150 520 L200 480 L250 600 L300 550 L350 600 L400 520 L450 580 L500 550 L600 600 L600 800 L0 800 Z" fill="#0a0a15"/>
  <path d="M0 520 L80 500 L120 540 L180 500 L220 620 L280 570 L320 620 L380 540 L420 600 L480 570 L520 620 L600 580 L600 800 L0 800 Z" fill="#15151f" opacity="0.8"/>
  <circle cx="150" cy="440" r="15" fill="url(#light1)"/>
  <circle cx="300" cy="450" r="12" fill="url(#light2)"/>
  <circle cx="450" cy="440" r="15" fill="url(#light3)"/>
</svg>
