<svg xmlns="http://www.w3.org/2000/svg" viewBox="0 0 600 800" width="600" height="800">
  <defs>
    <linearGradient id="stripe1" x1="0%" y1="0%" x2="100%" y2="0%">
      <stop offset="0%" style="stop-color:#e74c3c"/>
      <stop offset="100%" style="stop-color:#e74c3c"/>
    </linearGradient>
    <linearGradient id="stripe2" x1="0%" y1="0%" x2="100%" y2="0%">
      <stop offset="0%" style="stop-color:#f39c12"/>
      <stop offset="100%" style="stop-color:#f39c12"/>
    </linearGradient>
    <linearGradient id="stripe3" x1="0%" y1="0%" x2="100%" y2="0%">
      <stop offset="0%" style="stop-color:#f1c40f"/>
      <stop offset="100%" style="stop-color:#f1c40f"/>
    </linearGradient>
    <linearGradient id="stripe4" x1="0%" y1="0%" x2="100%" y2="0%">
      <stop offset="0%" style="stop-color:#2ecc71"/>
      <stop offset="100%" style="stop-color:#2ecc71"/>
    </linearGradient>
    <linearGradient id="stripe5" x1="0%" y1="0%" x2="100%" y2="0%">
      <stop offset="0%" style="stop-color:#3498db"/>
      <stop offset="100%" style="stop-color:#3498db"/>
    </linearGradient>
    <linearGradient id="stripe6" x1="0%" y1="0%" x2="100%" y2="0%">
      <stop offset="0%" style="stop-color:#9b59b6"/>
      <stop offset="100%" style="stop-color:#9b59b6"/>
    </linearGradient>
    <filter id="neon-glow">
      <feGaussianBlur stdDeviation="3" result="blur"/>
      <feMerge>
        <feMergeNode in="blur"/>
        <feMergeNode in="SourceGraphic"/>
      </feMerge>
    </filter>
  </defs>
  <rect width="600" height="800" fill="#0a0a0a"/>
  <path d="M220 750 L220 200 L250 150 L280 200 L280 750 Z" fill="#e74c3c" filter="url(#neon-glow)"/>
  <path d="M280 750 L280 200 L310 150 L340 200 L340 750 Z" fill="#f39c12" filter="url(#neon-glow)"/>
  <path d="M340 750 L340 200 L370 150 L400 200 L400 750 Z" fill="#f1c40f" filter="url(#neon-glow)"/>
  <path d="M400 750 L400 200 L430 150 L460 200 L460 750 Z" fill="#2ecc71" filter="url(#neon-glow)"/>
  <path d="M460 750 L460 200 L490 150 L520 200 L520 750 Z" fill="#3498db" filter="url(#neon-glow)"/>
  <path d="M520 750 L520 200 L550 150 L580 200 L580 750 Z" fill="#9b59b6" filter="url(#neon-glow)"/>
  <path d="M220 750 L220 200 L250 150 L280 200 L280 750 Z" fill="none" stroke="#0a0a0a" stroke-width="2"/>
  <path d="M280 750 L280 200 L310 150 L340 200 L340 750 Z" fill="none" stroke="#0a0a0a" stroke-width="2"/>
  <path d="M340 750 L340 200 L370 150 L400 200 L400 750 Z" fill="none" stroke="#0a0a0a" stroke-width="2"/>
  <path d="M400 750 L400 200 L430 150 L460 200 L460 750 Z" fill="none" stroke="#0a0a0a" stroke-width="2"/>
  <path d="M460 750 L460 200 L490 150 L520 200 L520 750 Z" fill="none" stroke="#0a0a0a" stroke-width="2"/>
  <path d="M520 750 L520 200 L550 150 L580 200 L580 750 Z" fill="none" stroke="#0a0a0a" stroke-width="2"/>
</svg>
