<svg xmlns="http://www.w3.org/2000/svg" viewBox="0 0 600 800" width="600" height="800">
  <defs>
    <linearGradient id="oh-bg" x1="0" y1="0" x2="0" y2="1">
      <stop offset="0%" stop-color="#F5F0E1"/>
      <stop offset="100%" stop-color="#EDE4D0"/>
    </linearGradient>
  </defs>
  <rect width="600" height="800" fill="url(#oh-bg)"/>
  <!-- Agnes Martin inspired — many thin horizontal lines with slight irregularity -->
  <!-- Warm section (top 2/3) — ochre, sand, cream, pale gold -->
  <g fill="none" stroke-linecap="round">
    <path d="M30,40 Q150,38 300,41 Q450,39 570,40" stroke="#D4A960" stroke-width="0.8" opacity="0.4"/>
    <path d="M30,55 Q200,54 350,56 Q500,54 570,55" stroke="#C4943A" stroke-width="0.6" opacity="0.35"/>
    <path d="M30,70 Q100,72 250,69 Q400,71 570,70" stroke="#E8D5A0" stroke-width="0.7" opacity="0.3"/>
    <path d="M30,88 Q180,86 300,89 Q450,87 570,88" stroke="#B8942A" stroke-width="0.8" opacity="0.35"/>
    <path d="M30,105 Q150,107 300,104 Q420,106 570,105" stroke="#D4B870" stroke-width="0.6" opacity="0.4"/>
    <path d="M30,120 Q200,118 350,121 Q500,119 570,120" stroke="#C4A450" stroke-width="0.7" opacity="0.3"/>
    <path d="M30,138 Q130,140 280,137 Q430,139 570,138" stroke="#E8C880" stroke-width="0.8" opacity="0.35"/>
    <path d="M30,155 Q200,153 340,156 Q480,154 570,155" stroke="#B88A30" stroke-width="0.6" opacity="0.4"/>
    <path d="M30,172 Q150,174 300,171 Q450,173 570,172" stroke="#D4A050" stroke-width="0.7" opacity="0.3"/>
    <path d="M30,190 Q180,188 320,191 Q470,189 570,190" stroke="#C4943A" stroke-width="0.8" opacity="0.35"/>
    <path d="M30,206 Q200,208 350,205 Q490,207 570,206" stroke="#E8D0A0" stroke-width="0.6" opacity="0.3"/>
    <path d="M30,222 Q140,220 290,223 Q440,221 570,222" stroke="#D4B060" stroke-width="0.7" opacity="0.4"/>
    <path d="M30,240 Q190,238 330,241 Q460,239 570,240" stroke="#B89840" stroke-width="0.8" opacity="0.35"/>
    <path d="M30,257 Q160,259 310,256 Q450,258 570,257" stroke="#C4A860" stroke-width="0.6" opacity="0.3"/>
    <path d="M30,274 Q200,272 340,275 Q480,273 570,274" stroke="#E8C470" stroke-width="0.7" opacity="0.35"/>
    <path d="M30,290 Q150,292 300,289 Q440,291 570,290" stroke="#D4A44A" stroke-width="0.8" opacity="0.4"/>
    <path d="M30,308 Q180,306 320,309 Q470,307 570,308" stroke="#B8903A" stroke-width="0.6" opacity="0.35"/>
    <path d="M30,325 Q200,327 350,324 Q490,326 570,325" stroke="#C4983A" stroke-width="0.7" opacity="0.3"/>
    <path d="M30,342 Q140,340 280,343 Q430,341 570,342" stroke="#D4B870" stroke-width="0.8" opacity="0.35"/>
    <path d="M30,358 Q190,360 330,357 Q460,359 570,358" stroke="#E8D090" stroke-width="0.6" opacity="0.3"/>
    <path d="M30,375 Q160,373 310,376 Q450,374 570,375" stroke="#C4A050" stroke-width="0.7" opacity="0.4"/>
    <path d="M30,392 Q200,394 340,391 Q480,393 570,392" stroke="#B89440" stroke-width="0.8" opacity="0.35"/>
    <path d="M30,408 Q150,406 300,409 Q440,407 570,408" stroke="#D4A860" stroke-width="0.6" opacity="0.3"/>
    <path d="M30,425 Q180,427 320,424 Q470,426 570,425" stroke="#C4943A" stroke-width="0.7" opacity="0.35"/>
    <path d="M30,442 Q200,440 350,443 Q490,441 570,442" stroke="#E8C880" stroke-width="0.8" opacity="0.4"/>
    <path d="M30,458 Q140,460 290,457 Q440,459 570,458" stroke="#D4B060" stroke-width="0.6" opacity="0.3"/>
    <path d="M30,475 Q190,473 330,476 Q460,474 570,475" stroke="#B8882A" stroke-width="0.7" opacity="0.35"/>
    <path d="M30,492 Q160,494 310,491 Q450,493 570,492" stroke="#C4A450" stroke-width="0.8" opacity="0.35"/>
    <path d="M30,508 Q200,506 340,509 Q480,507 570,508" stroke="#D4A960" stroke-width="0.6" opacity="0.3"/>
    <!-- Horizon zone — shift to cooler tones -->
    <path d="M30,528 Q150,530 300,527 Q440,529 570,528" stroke="#A0A088" stroke-width="1" opacity="0.45"/>
    <path d="M30,532 Q180,530 320,533 Q470,531 570,532" stroke="#909880" stroke-width="0.8" opacity="0.4"/>
    <!-- Cool section (bottom 1/3) — muted sage, grey-green, cool sand -->
    <path d="M30,550 Q200,548 350,551 Q490,549 570,550" stroke="#8A9878" stroke-width="0.7" opacity="0.3"/>
    <path d="M30,567 Q140,569 290,566 Q440,568 570,567" stroke="#98A888" stroke-width="0.6" opacity="0.35"/>
    <path d="M30,584 Q190,582 330,585 Q460,583 570,584" stroke="#A0A890" stroke-width="0.8" opacity="0.3"/>
    <path d="M30,600 Q160,602 310,599 Q450,601 570,600" stroke="#889878" stroke-width="0.7" opacity="0.35"/>
    <path d="M30,618 Q200,616 340,619 Q480,617 570,618" stroke="#90A080" stroke-width="0.6" opacity="0.3"/>
    <path d="M30,635 Q150,637 300,634 Q440,636 570,635" stroke="#98A888" stroke-width="0.8" opacity="0.35"/>
    <path d="M30,652 Q180,650 320,653 Q470,651 570,652" stroke="#8A9878" stroke-width="0.7" opacity="0.3"/>
    <path d="M30,668 Q200,670 350,667 Q490,669 570,668" stroke="#A0A890" stroke-width="0.6" opacity="0.3"/>
    <path d="M30,685 Q140,683 280,686 Q430,684 570,685" stroke="#90A080" stroke-width="0.8" opacity="0.35"/>
    <path d="M30,702 Q190,704 330,701 Q460,703 570,702" stroke="#889878" stroke-width="0.7" opacity="0.3"/>
    <path d="M30,718 Q160,716 310,719 Q450,717 570,718" stroke="#98A888" stroke-width="0.6" opacity="0.3"/>
    <path d="M30,735 Q200,737 340,734 Q480,736 570,735" stroke="#8A9878" stroke-width="0.8" opacity="0.35"/>
    <path d="M30,752 Q150,750 300,753 Q440,751 570,752" stroke="#A0A890" stroke-width="0.7" opacity="0.3"/>
    <path d="M30,770 Q180,768 320,771 Q470,769 570,770" stroke="#90A080" stroke-width="0.6" opacity="0.3"/>
  </g>
</svg>