<svg xmlns="http://www.w3.org/2000/svg" viewBox="0 0 600 800" width="600" height="800">
  <defs>
    <linearGradient id="aged-paper" x1="0%" y1="0%" x2="100%" y2="100%">
      <stop offset="0%" style="stop-color:#f5f0e6"/>
      <stop offset="50%" style="stop-color:#e8e0d0"/>
      <stop offset="100%" style="stop-color:#d8c8b0"/>
    </linearGradient>
    <radialGradient id="spec1" cx="50%" cy="50%" r="50%">
      <stop offset="0%" style="stop-color:#e74c3c"/>
      <stop offset="100%" style="stop-color:#c0392b"/>
    </radialGradient>
    <radialGradient id="spec2" cx="50%" cy="50%" r="50%">
      <stop offset="0%" style="stop-color:#9b59b6"/>
      <stop offset="100%" style="stop-color:#6c3483"/>
    </radialGradient>
    <radialGradient id="spec3" cx="50%" cy="50%" r="50%">
      <stop offset="0%" style="stop-color:#f1c40f"/>
      <stop offset="100%" style="stop-color:#d4ac0d"/>
    </radialGradient>
    <radialGradient id="spec4" cx="50%" cy="50%" r="50%">
      <stop offset="0%" style="stop-color:#2ecc71"/>
      <stop offset="100%" style="stop-color:#27ae60"/>
    </radialGradient>
    <radialGradient id="spec5" cx="50%" cy="50%" r="50%">
      <stop offset="0%" style="stop-color:#3498db"/>
      <stop offset="100%" style="stop-color:#2980b9"/>
    </radialGradient>
    <radialGradient id="spec6" cx="50%" cy="50%" r="50%">
      <stop offset="0%" style="stop-color:#e67e22"/>
      <stop offset="100%" style="stop-color:#d35400"/>
    </radialGradient>
  </defs>
  <rect width="600" height="800" fill="url(#aged-paper)"/>
  <rect x="80" y="100" width="180" height="220" rx="4" fill="#f0e8dc" stroke="#c8b8a0" stroke-width="1"/>
  <ellipse cx="170" cy="180" rx="40" ry="50" fill="url(#spec1)"/>
  <rect x="340" y="100" width="180" height="220" rx="4" fill="#f0e8dc" stroke="#c8b8a0" stroke-width="1"/>
  <ellipse cx="430" cy="180" rx="40" ry="50" fill="url(#spec2)"/>
  <rect x="80" y="360" width="180" height="220" rx="4" fill="#f0e8dc" stroke="#c8b8a0" stroke-width="1"/>
  <ellipse cx="170" cy="440" rx="40" ry="50" fill="url(#spec3)"/>
  <rect x="340" y="360" width="180" height="220" rx="4" fill="#f0e8dc" stroke="#c8b8a0" stroke-width="1"/>
  <ellipse cx="430" cy="440" rx="40" ry="50" fill="url(#spec4)"/>
  <rect x="80" y="620" width="180" height="140" rx="4" fill="#f0e8dc" stroke="#c8b8a0" stroke-width="1"/>
  <ellipse cx="170" cy="680" rx="35" ry="40" fill="url(#spec5)"/>
  <rect x="340" y="620" width="180" height="140" rx="4" fill="#f0e8dc" stroke="#c8b8a0" stroke-width="1"/>
  <ellipse cx="430" cy="680" rx="35" ry="40" fill="url(#spec6)"/>
</svg>
