<svg xmlns="http://www.w3.org/2000/svg" viewBox="0 0 600 800" width="600" height="800">
  <defs>
    <pattern id="circuit-grid" width="100" height="100">
      <path d="M0 50 L100 50" stroke="#f1c40f" stroke-width="8" fill="none"/>
      <path d="M50 0 L50 100" stroke="#f1c40f" stroke-width="6" fill="none"/>
    </pattern>
  </defs>
  <rect width="600" height="800" fill="#ff1493"/>
  <rect x="50" y="100" width="500" height="600" rx="20" fill="#ff69b4"/>
  <path d="M100 200 L150 200 L150 350 L250 350 L250 250 L350 250 L350 450 L450 450 L450 300 L500 300" stroke="#f1c40f" stroke-width="12" fill="none" stroke-linecap="round"/>
  <path d="M150 350 L150 500 L200 500 L200 600 L300 600 L300 550 L400 550" stroke="#f1c40f" stroke-width="10" fill="none" stroke-linecap="round"/>
  <circle cx="100" cy="200" r="20" fill="#3498db"/>
  <circle cx="250" cy="350" r="18" fill="#3498db"/>
  <circle cx="350" cy="550" r="18" fill="#3498db"/>
  <circle cx="500" cy="300" r="20" fill="#3498db"/>
  <circle cx="250" cy="250" r="15" fill="#e74c3c"/>
  <circle cx="450" cy="450" r="15" fill="#e74c3c"/>
</svg>
