<svg xmlns="http://www.w3.org/2000/svg" viewBox="0 0 600 800" width="600" height="800">
  <defs>
    <linearGradient id="rust" x1="0%" y1="0%" x2="100%" y2="100%">
      <stop offset="0%" style="stop-color:#8b4513"/>
      <stop offset="30%" style="stop-color:#a0522d"/>
      <stop offset="70%" style="stop-color:#6b3410"/>
      <stop offset="100%" style="stop-color:#4a2c0a"/>
    </linearGradient>
    <linearGradient id="rust-light" x1="0%" y1="0%" x2="100%" y2="100%">
      <stop offset="0%" style="stop-color:#cd853f"/>
      <stop offset="100%" style="stop-color:#8b4513"/>
    </linearGradient>
  </defs>
  <rect width="600" height="800" fill="url(#rust)"/>
  <path d="M100 200 Q150 300 100 400 Q150 500 100 600" stroke="url(#rust-light)" stroke-width="2" fill="none" opacity="0.6"/>
  <path d="M200 150 Q250 250 200 350 Q250 450 200 550" stroke="url(#rust-light)" stroke-width="2" fill="none" opacity="0.5"/>
  <path d="M300 180 Q350 280 300 380 Q350 480 300 580" stroke="url(#rust-light)" stroke-width="2" fill="none" opacity="0.6"/>
  <path d="M400 200 Q450 300 400 400 Q450 500 400 600" stroke="url(#rust-light)" stroke-width="2" fill="none" opacity="0.5"/>
  <path d="M500 150 Q550 250 500 350 Q550 450 500 550" stroke="url(#rust-light)" stroke-width="2" fill="none" opacity="0.6"/>
  <ellipse cx="150" cy="300" rx="80" ry="40" fill="none" stroke="url(#rust-light)" stroke-width="1" opacity="0.4"/>
  <ellipse cx="300" cy="400" rx="100" ry="50" fill="none" stroke="url(#rust-light)" stroke-width="1" opacity="0.4"/>
  <ellipse cx="450" cy="280" rx="70" ry="35" fill="none" stroke="url(#rust-light)" stroke-width="1" opacity="0.4"/>
</svg>
