<svg xmlns="http://www.w3.org/2000/svg" viewBox="0 0 600 800" width="600" height="800">
  <defs>
    <radialGradient id="sp-halo1" cx="0.5" cy="0.48" r="0.35">
      <stop offset="0%" stop-color="#20A0A0" stop-opacity="0.5"/>
      <stop offset="40%" stop-color="#1A8A8A" stop-opacity="0.25"/>
      <stop offset="70%" stop-color="#158080" stop-opacity="0.1"/>
      <stop offset="100%" stop-color="#106060" stop-opacity="0"/>
    </radialGradient>
    <radialGradient id="sp-halo2" cx="0.5" cy="0.48" r="0.42">
      <stop offset="0%" stop-color="#D4A040" stop-opacity="0.35"/>
      <stop offset="40%" stop-color="#C4943A" stop-opacity="0.15"/>
      <stop offset="70%" stop-color="#B88830" stop-opacity="0.05"/>
      <stop offset="100%" stop-color="#A07828" stop-opacity="0"/>
    </radialGradient>
  </defs>
  <rect width="600" height="800" fill="#2A1A18"/>
  <!-- Brick pattern background -->
  <g stroke="#3A2A25" stroke-width="1" fill="none" opacity="0.5">
    <!-- Row 1 -->
    <rect x="0" y="0" width="80" height="35"/><rect x="82" y="0" width="80" height="35"/>
    <rect x="164" y="0" width="80" height="35"/><rect x="246" y="0" width="80" height="35"/>
    <rect x="328" y="0" width="80" height="35"/><rect x="410" y="0" width="80" height="35"/>
    <rect x="492" y="0" width="80" height="35"/><rect x="574" y="0" width="30" height="35"/>
    <!-- Row 2 offset -->
    <rect x="-40" y="37" width="80" height="35"/><rect x="42" y="37" width="80" height="35"/>
    <rect x="124" y="37" width="80" height="35"/><rect x="206" y="37" width="80" height="35"/>
    <rect x="288" y="37" width="80" height="35"/><rect x="370" y="37" width="80" height="35"/>
    <rect x="452" y="37" width="80" height="35"/><rect x="534" y="37" width="80" height="35"/>
    <!-- Row 3 -->
    <rect x="0" y="74" width="80" height="35"/><rect x="82" y="74" width="80" height="35"/>
    <rect x="164" y="74" width="80" height="35"/><rect x="246" y="74" width="80" height="35"/>
    <rect x="328" y="74" width="80" height="35"/><rect x="410" y="74" width="80" height="35"/>
    <rect x="492" y="74" width="80" height="35"/><rect x="574" y="74" width="30" height="35"/>
    <!-- Row 4 -->
    <rect x="-40" y="111" width="80" height="35"/><rect x="42" y="111" width="80" height="35"/>
    <rect x="124" y="111" width="80" height="35"/><rect x="206" y="111" width="80" height="35"/>
    <rect x="288" y="111" width="80" height="35"/><rect x="370" y="111" width="80" height="35"/>
    <rect x="452" y="111" width="80" height="35"/><rect x="534" y="111" width="80" height="35"/>
    <!-- Row 5 -->
    <rect x="0" y="148" width="80" height="35"/><rect x="82" y="148" width="80" height="35"/>
    <rect x="164" y="148" width="80" height="35"/><rect x="246" y="148" width="80" height="35"/>
    <rect x="328" y="148" width="80" height="35"/><rect x="410" y="148" width="80" height="35"/>
    <rect x="492" y="148" width="80" height="35"/><rect x="574" y="148" width="30" height="35"/>
    <!-- Row 6 -->
    <rect x="-40" y="185" width="80" height="35"/><rect x="42" y="185" width="80" height="35"/>
    <rect x="124" y="185" width="80" height="35"/><rect x="206" y="185" width="80" height="35"/>
    <rect x="288" y="185" width="80" height="35"/><rect x="370" y="185" width="80" height="35"/>
    <rect x="452" y="185" width="80" height="35"/><rect x="534" y="185" width="80" height="35"/>
    <!-- Rows 7-22 continue the brick pattern -->
    <rect x="0" y="222" width="80" height="35"/><rect x="82" y="222" width="80" height="35"/>
    <rect x="164" y="222" width="80" height="35"/><rect x="246" y="222" width="80" height="35"/>
    <rect x="328" y="222" width="80" height="35"/><rect x="410" y="222" width="80" height="35"/>
    <rect x="492" y="222" width="80" height="35"/><rect x="574" y="222" width="30" height="35"/>
    <rect x="-40" y="259" width="80" height="35"/><rect x="42" y="259" width="80" height="35"/>
    <rect x="124" y="259" width="80" height="35"/><rect x="206" y="259" width="80" height="35"/>
    <rect x="288" y="259" width="80" height="35"/><rect x="370" y="259" width="80" height="35"/>
    <rect x="452" y="259" width="80" height="35"/><rect x="534" y="259" width="80" height="35"/>
    <rect x="0" y="296" width="80" height="35"/><rect x="82" y="296" width="80" height="35"/>
    <rect x="164" y="296" width="80" height="35"/><rect x="246" y="296" width="80" height="35"/>
    <rect x="328" y="296" width="80" height="35"/><rect x="410" y="296" width="80" height="35"/>
    <rect x="492" y="296" width="80" height="35"/><rect x="574" y="296" width="30" height="35"/>
    <rect x="-40" y="333" width="80" height="35"/><rect x="42" y="333" width="80" height="35"/>
    <rect x="124" y="333" width="80" height="35"/><rect x="206" y="333" width="80" height="35"/>
    <rect x="288" y="333" width="80" height="35"/><rect x="370" y="333" width="80" height="35"/>
    <rect x="452" y="333" width="80" height="35"/><rect x="534" y="333" width="80" height="35"/>
    <rect x="0" y="370" width="80" height="35"/><rect x="82" y="370" width="80" height="35"/>
    <rect x="164" y="370" width="80" height="35"/><rect x="246" y="370" width="80" height="35"/>
    <rect x="328" y="370" width="80" height="35"/><rect x="410" y="370" width="80" height="35"/>
    <rect x="492" y="370" width="80" height="35"/><rect x="574" y="370" width="30" height="35"/>
    <rect x="-40" y="407" width="80" height="35"/><rect x="42" y="407" width="80" height="35"/>
    <rect x="124" y="407" width="80" height="35"/><rect x="206" y="407" width="80" height="35"/>
    <rect x="288" y="407" width="80" height="35"/><rect x="370" y="407" width="80" height="35"/>
    <rect x="452" y="407" width="80" height="35"/><rect x="534" y="407" width="80" height="35"/>
    <rect x="0" y="444" width="80" height="35"/><rect x="82" y="444" width="80" height="35"/>
    <rect x="164" y="444" width="80" height="35"/><rect x="246" y="444" width="80" height="35"/>
    <rect x="328" y="444" width="80" height="35"/><rect x="410" y="444" width="80" height="35"/>
    <rect x="492" y="444" width="80" height="35"/><rect x="574" y="444" width="30" height="35"/>
    <rect x="-40" y="481" width="80" height="35"/><rect x="42" y="481" width="80" height="35"/>
    <rect x="124" y="481" width="80" height="35"/><rect x="206" y="481" width="80" height="35"/>
    <rect x="288" y="481" width="80" height="35"/><rect x="370" y="481" width="80" height="35"/>
    <rect x="452" y="481" width="80" height="35"/><rect x="534" y="481" width="80" height="35"/>
    <rect x="0" y="518" width="80" height="35"/><rect x="82" y="518" width="80" height="35"/>
    <rect x="164" y="518" width="80" height="35"/><rect x="246" y="518" width="80" height="35"/>
    <rect x="328" y="518" width="80" height="35"/><rect x="410" y="518" width="80" height="35"/>
    <rect x="492" y="518" width="80" height="35"/><rect x="574" y="518" width="30" height="35"/>
    <rect x="-40" y="555" width="80" height="35"/><rect x="42" y="555" width="80" height="35"/>
    <rect x="124" y="555" width="80" height="35"/><rect x="206" y="555" width="80" height="35"/>
    <rect x="288" y="555" width="80" height="35"/><rect x="370" y="555" width="80" height="35"/>
    <rect x="452" y="555" width="80" height="35"/><rect x="534" y="555" width="80" height="35"/>
    <rect x="0" y="592" width="80" height="35"/><rect x="82" y="592" width="80" height="35"/>
    <rect x="164" y="592" width="80" height="35"/><rect x="246" y="592" width="80" height="35"/>
    <rect x="328" y="592" width="80" height="35"/><rect x="410" y="592" width="80" height="35"/>
    <rect x="492" y="592" width="80" height="35"/><rect x="574" y="592" width="30" height="35"/>
    <rect x="-40" y="629" width="80" height="35"/><rect x="42" y="629" width="80" height="35"/>
    <rect x="124" y="629" width="80" height="35"/><rect x="206" y="629" width="80" height="35"/>
    <rect x="288" y="629" width="80" height="35"/><rect x="370" y="629" width="80" height="35"/>
    <rect x="452" y="629" width="80" height="35"/><rect x="534" y="629" width="80" height="35"/>
    <rect x="0" y="666" width="80" height="35"/><rect x="82" y="666" width="80" height="35"/>
    <rect x="164" y="666" width="80" height="35"/><rect x="246" y="666" width="80" height="35"/>
    <rect x="328" y="666" width="80" height="35"/><rect x="410" y="666" width="80" height="35"/>
    <rect x="492" y="666" width="80" height="35"/><rect x="574" y="666" width="30" height="35"/>
    <rect x="-40" y="703" width="80" height="35"/><rect x="42" y="703" width="80" height="35"/>
    <rect x="124" y="703" width="80" height="35"/><rect x="206" y="703" width="80" height="35"/>
    <rect x="288" y="703" width="80" height="35"/><rect x="370" y="703" width="80" height="35"/>
    <rect x="452" y="703" width="80" height="35"/><rect x="534" y="703" width="80" height="35"/>
    <rect x="0" y="740" width="80" height="35"/><rect x="82" y="740" width="80" height="35"/>
    <rect x="164" y="740" width="80" height="35"/><rect x="246" y="740" width="80" height="35"/>
    <rect x="328" y="740" width="80" height="35"/><rect x="410" y="740" width="80" height="35"/>
    <rect x="492" y="740" width="80" height="35"/><rect x="574" y="740" width="30" height="35"/>
  </g>
  <!-- Brick color variations -->
  <g opacity="0.05">
    <rect x="82" y="74" width="80" height="35" fill="#4A2A22"/>
    <rect x="288" y="185" width="80" height="35" fill="#3A2218"/>
    <rect x="42" y="333" width="80" height="35" fill="#4A2A22"/>
    <rect x="410" y="444" width="80" height="35" fill="#3A2218"/>
    <rect x="164" y="555" width="80" height="35" fill="#4A2A22"/>
    <rect x="370" y="666" width="80" height="35" fill="#3A2218"/>
  </g>
  <!-- Concentric spray-paint circles — teal and gold halo -->
  <circle cx="300" cy="380" r="280" fill="none" stroke="#20A0A0" stroke-width="8" opacity="0.08"/>
  <circle cx="300" cy="380" r="250" fill="none" stroke="#D4A040" stroke-width="6" opacity="0.1"/>
  <circle cx="300" cy="380" r="220" fill="none" stroke="#20A0A0" stroke-width="10" opacity="0.12"/>
  <circle cx="300" cy="380" r="190" fill="none" stroke="#D4A040" stroke-width="8" opacity="0.15"/>
  <circle cx="300" cy="380" r="160" fill="none" stroke="#20A0A0" stroke-width="12" opacity="0.18"/>
  <circle cx="300" cy="380" r="130" fill="none" stroke="#D4A040" stroke-width="10" opacity="0.2"/>
  <!-- Diffuse spray glow -->
  <ellipse cx="300" cy="380" rx="200" ry="220" fill="url(#sp-halo1)"/>
  <ellipse cx="300" cy="380" rx="170" ry="190" fill="url(#sp-halo2)"/>
  <!-- Spray overspray dots — teal -->
  <g fill="#20A0A0" opacity="0.12">
    <circle cx="100" cy="200" r="2"/><circle cx="85" cy="220" r="1.5"/>
    <circle cx="115" cy="185" r="1"/><circle cx="500" cy="210" r="2"/>
    <circle cx="510" cy="240" r="1.5"/><circle cx="488" cy="195" r="1"/>
    <circle cx="120" cy="560" r="1.8"/><circle cx="105" cy="580" r="1.2"/>
    <circle cx="480" cy="550" r="2"/><circle cx="495" cy="575" r="1.5"/>
  </g>
  <!-- Spray overspray dots — gold -->
  <g fill="#D4A040" opacity="0.1">
    <circle cx="130" cy="280" r="1.5"/><circle cx="470" cy="290" r="1.8"/>
    <circle cx="140" cy="490" r="1.2"/><circle cx="460" cy="480" r="1.5"/>
  </g>
  <!-- White stencil figure — peaceful protest pose -->
  <g fill="#F0EDE0">
    <!-- Head -->
    <circle cx="300" cy="250" r="22"/>
    <!-- Neck -->
    <rect x="293" y="272" width="14" height="15"/>
    <!-- Torso -->
    <path d="M265,287 L335,287 L330,430 L270,430 Z"/>
    <!-- Left arm — slightly raised -->
    <path d="M265,295 L220,260 L215,255 Q210,250 205,255 L210,262 L212,265 L255,305" fill="#F0EDE0"/>
    <rect x="205" y="248" width="14" height="22" rx="5" transform="rotate(-50,212,259)"/>
    <!-- Right arm — slightly raised -->
    <path d="M335,295 L380,260 L385,255 Q390,250 395,255 L390,262 L388,265 L345,305" fill="#F0EDE0"/>
    <rect x="381" y="248" width="14" height="22" rx="5" transform="rotate(50,388,259)"/>
    <!-- Left leg -->
    <rect x="272" y="428" width="22" height="120" rx="4"/>
    <!-- Right leg -->
    <rect x="306" y="428" width="22" height="120" rx="4"/>
    <!-- Feet -->
    <ellipse cx="283" cy="552" rx="16" ry="8"/>
    <ellipse cx="317" cy="552" rx="16" ry="8"/>
  </g>
  <!-- Shadow/depth on figure -->
  <g fill="#D8D5C8" opacity="0.3">
    <rect x="300" y="290" width="30" height="140"/>
    <rect x="300" y="430" width="22" height="120" rx="4"/>
  </g>
</svg>