<svg xmlns="http://www.w3.org/2000/svg" viewBox="0 0 600 800" width="600" height="800">
  <defs>
    <linearGradient id="bg-dark" x1="0%" y1="0%" x2="100%" y2="100%">
      <stop offset="0%" style="stop-color:#2d2d2d"/>
      <stop offset="100%" style="stop-color:#1a1a1a"/>
    </linearGradient>
  </defs>
  <rect width="600" height="800" fill="url(#bg-dark)"/>
  <path d="M100 200 L150 180 L200 220 L180 280 L120 260 Z" fill="#e74c3c" opacity="0.8"/>
  <path d="M250 150 L320 140 L400 180 L380 250 L300 240 Z" fill="#3498db" opacity="0.7"/>
  <path d="M350 300 L420 280 L480 320 L450 400 L370 380 Z" fill="#f1c40f" opacity="0.8"/>
  <path d="M150 400 L220 380 L280 420 L250 500 L180 480 Z" fill="#2ecc71" opacity="0.7"/>
  <path d="M400 450 L470 430 L530 480 L500 560 L420 540 Z" fill="#9b59b6" opacity="0.8"/>
  <path d="M80 550 L140 530 L200 580 L170 650 L100 630 Z" fill="#e67e22" opacity="0.7"/>
</svg>
