<svg xmlns="http://www.w3.org/2000/svg" viewBox="0 0 600 800" width="600" height="800">
  <defs>
    <linearGradient id="sky-gold" x1="0%" y1="0%" x2="0%" y2="100%">
      <stop offset="0%" style="stop-color:#1a1a2e"/>
      <stop offset="15%" style="stop-color:#2d2d4a"/>
      <stop offset="25%" style="stop-color:#d4af37"/>
      <stop offset="30%" style="stop-color:#b8860b"/>
      <stop offset="100%" style="stop-color:#1a1a2e"/>
    </linearGradient>
    <linearGradient id="water" x1="0%" y1="0%" x2="0%" y2="100%">
      <stop offset="0%" style="stop-color:#2d1b4e"/>
      <stop offset="100%" style="stop-color:#0d0d1a"/>
    </linearGradient>
    <path id="mountain" d="M0 400 L150 250 L300 320 L450 200 L600 350 L600 800 L0 800 Z"/>
  </defs>
  <rect width="600" height="800" fill="url(#water)"/>
  <rect x="0" y="0" width="600" height="240" fill="url(#sky-gold)"/>
  <path d="M0 400 L150 250 L300 320 L450 200 L600 350 L600 800 L0 800 Z" fill="#2d1b4e" opacity="0.9"/>
  <path d="M0 420 L120 280 L280 350 L420 230 L600 370 L600 800 L0 800 Z" fill="#1a0a2e" opacity="0.8"/>
  <rect x="0" y="400" width="600" height="400" fill="url(#water)"/>
  <ellipse cx="300" cy="400" rx="350" ry="80" fill="#1a0a2e" opacity="0.6"/>
</svg>
