<svg xmlns="http://www.w3.org/2000/svg" viewBox="0 0 600 800" width="600" height="800">
  <defs>
    <linearGradient id="cream-gold" x1="0%" y1="0%" x2="100%" y2="100%">
      <stop offset="0%" style="stop-color:#faf8f5"/>
      <stop offset="100%" style="stop-color:#f0e8d8"/>
    </linearGradient>
    <linearGradient id="leaf1" x1="0%" y1="0%" x2="100%" y2="100%">
      <stop offset="0%" style="stop-color:#2d5a27"/>
      <stop offset="100%" style="stop-color:#3d7a37"/>
    </linearGradient>
    <linearGradient id="leaf2" x1="0%" y1="0%" x2="100%" y2="100%">
      <stop offset="0%" style="stop-color:#4a7a3a"/>
      <stop offset="100%" style="stop-color:#2d5a27"/>
    </linearGradient>
    <linearGradient id="leaf3" x1="0%" y1="0%" x2="100%" y2="100%">
      <stop offset="0%" style="stop-color:#5a9a4a"/>
      <stop offset="100%" style="stop-color:#3d7a37"/>
    </linearGradient>
  </defs>
  <rect width="600" height="800" fill="url(#cream-gold)"/>
  <ellipse cx="150" cy="200" rx="60" ry="25" fill="url(#leaf1)" transform="rotate(-30 150 200)"/>
  <ellipse cx="450" cy="280" rx="70" ry="30" fill="url(#leaf2)" transform="rotate(45 450 280)"/>
  <ellipse cx="250" cy="400" rx="55" ry="28" fill="url(#leaf3)" transform="rotate(-15 250 400)"/>
  <ellipse cx="380" cy="500" rx="65" ry="27" fill="url(#leaf1)" transform="rotate(60 380 500)"/>
  <ellipse cx="100" cy="550" rx="50" ry="22" fill="url(#leaf2)" transform="rotate(-45 100 550)"/>
  <ellipse cx="320" cy="650" rx="58" ry="26" fill="url(#leaf3)" transform="rotate(20 320 650)"/>
</svg>
